<svg xmlns="http://www.w3.org/2000/svg" id="svg1" width="440mm" height="44.45mm" viewBox="0 0 440 44.45"><defs id="defs1"><linearGradient id="blueprintChassisFill" x1="0" x2="0" y1="0" y2="1"><stop offset="0" stop-color="#eceef1"/><stop offset="1" stop-color="#d8dbe0"/></linearGradient><filter id="blueprintShadow" width="120%" height="130%" x="-10%" y="-10%"><feDropShadow dx="0" dy="1.5" flood-color="#1a2230" flood-opacity=".22" stdDeviation="1.5"/></filter></defs><g filter="url(#blueprintShadow)"><g id="layer1" stroke-width="1"><rect id="rect1" width="440" height="44.45" x="0" y="0" fill="url(#blueprintChassisFill)" stroke="#b7bcc4" rx="3" ry="3"/><rect id="console-server-port_port1" width="15" height="12" x="220" y="16" fill="#8d83a0" stroke="#665c73" rx="1.5" ry="1.5"/><rect id="console-server-port_port2" width="15" height="12" x="240" y="16" fill="#8d83a0" stroke="#665c73" rx="1.5" ry="1.5"/><rect id="console-server-port_port3" width="15" height="12" x="260" y="16" fill="#8d83a0" stroke="#665c73" rx="1.5" ry="1.5"/><rect id="console-server-port_port4" width="15" height="12" x="280" y="16" fill="#8d83a0" stroke="#665c73" rx="1.5" ry="1.5"/><rect id="console-server-port_U1" width="15" height="12" x="200" y="7" fill="#8d83a0" stroke="#665c73" rx="1.5" ry="1.5"/><rect id="console-server-port_U2" width="15" height="12" x="200" y="24" fill="#8d83a0" stroke="#665c73" rx="1.5" ry="1.5"/><rect id="console-port_Console" width="15" height="12" x="180" y="24" fill="#8d83a0" stroke="#665c73" rx="1.5" ry="1.5"/><rect id="interface_ETH0" width="15" height="12" x="114" y="16" fill="#838d9a" stroke="#5c6673" rx="1.5" ry="1.5"/></g></g></svg>